<?xml version="1.0" encoding="utf-8"?>
<!-- Generator: Adobe Illustrator 25.2.1, SVG Export Plug-In . SVG Version: 6.00 Build 0)  -->
<svg version="1.1" id="Layer_1" xmlns="http://www.w3.org/2000/svg" xmlns:xlink="http://www.w3.org/1999/xlink" x="0px" y="0px"
	 viewBox="0 0 1000 1000" style="enable-background:new 0 0 1000 1000;" xml:space="preserve">
<style type="text/css">
	.st0{display:none;fill:#EFDADC;}
	.st1{fill:#EC1E24;}
</style>
<circle class="st0" cx="500" cy="500" r="500"/>
<g>
	<polygon class="st1" points="1000,26.79 0,427.17 77.88,697.05 77.88,464.72 224.47,409.75 224.47,973.21 389.38,831.2 
		306.93,863.27 306.93,377.68 1000,96.41 	"/>
	<polygon class="st1" points="357.32,413.42 357.32,814.74 590.49,710.28 533.66,640.99 539.64,689.18 426.03,735.96 426.03,440.91 
		848.68,258.54 848.68,202.66 	"/>
	<polygon class="st1" points="470.48,469.92 470.48,641.73 687.15,548.89 687.15,799.13 494.75,872.43 494.75,789.97 430.61,973.21 
		755.86,849.52 755.86,462.46 525.6,553.79 525.6,502.49 755.33,404.06 755.33,349.09 	"/>
</g>
</svg>
