<?xml version="1.0" encoding="utf-8"?>
<!-- Generator: Adobe Illustrator 25.2.1, SVG Export Plug-In . SVG Version: 6.00 Build 0)  -->
<svg version="1.1" id="Layer_1" xmlns="http://www.w3.org/2000/svg" xmlns:xlink="http://www.w3.org/1999/xlink" x="0px" y="0px"
	 viewBox="0 0 22 22" style="enable-background:new 0 0 22 22;" xml:space="preserve">
<style type="text/css">
	.st0{fill:#0D152D;}
</style>
<g>
	<path class="st0" d="M4.74,6.34c-0.07,0-0.13,0.01-0.19,0.03L11,11.89l6.45-5.53c-0.06-0.01-0.12-0.03-0.18-0.03L4.74,6.34
		L4.74,6.34z"/>
	<path class="st0" d="M3.7,15c0,0.37,0.3,0.66,0.69,0.66h13.23c0.38,0,0.68-0.3,0.68-0.66V7.05c0-0.06-0.01-0.11-0.02-0.16
		l-7.06,6.05c-0.07,0.05-0.14,0.08-0.22,0.08s-0.15-0.03-0.21-0.08L3.73,6.89C3.71,6.93,3.7,7,3.7,7.05C3.7,7.05,3.7,15,3.7,15z"/>
</g>
</svg>
