<?xml version="1.0" encoding="utf-8"?>
<!-- Generator: Adobe Illustrator 25.2.1, SVG Export Plug-In . SVG Version: 6.00 Build 0)  -->
<svg version="1.1" id="Layer_1" xmlns="http://www.w3.org/2000/svg" xmlns:xlink="http://www.w3.org/1999/xlink" x="0px" y="0px"
	 viewBox="0 0 22 22" style="enable-background:new 0 0 22 22;" xml:space="preserve">
<style type="text/css">
	.st0{fill:#0D152D;}
</style>
<path class="st0" d="M13.07,3.13c0.42,0,0.84,0.02,1.26,0.04c0.28,0.01,0.55,0.05,0.81,0.08l-0.02,2.54c-0.08,0-0.13,0-0.2,0
	c-0.28,0-0.55-0.01-0.83-0.01c-0.21,0-0.42,0-0.63,0.01c-0.67,0.02-1.16,0.28-1.2,1.11c-0.02,0.6-0.04,1.94-0.04,2.01
	c0.04,0,0.7,0,1.37,0c0.33,0,0.66,0,0.89,0c0.17,0,0.34,0,0.54,0c-0.14,0.97-0.26,1.91-0.39,2.85h-2.4l-0.05,7.11H9.22l0.05-7.12
	H6.86l0.02-2.83H9.3V8.71c0-0.57,0-1.14,0.02-1.71c0-0.36,0.02-0.73,0.09-1.09c0.16-0.86,0.56-1.6,1.29-2.12
	c0.63-0.45,1.36-0.64,2.12-0.66C12.91,3.13,12.99,3.13,13.07,3.13z"/>
</svg>
