<?xml version="1.0" encoding="utf-8"?>
<!-- Generator: Adobe Illustrator 25.2.1, SVG Export Plug-In . SVG Version: 6.00 Build 0)  -->
<svg version="1.1" id="Layer_1" xmlns="http://www.w3.org/2000/svg" xmlns:xlink="http://www.w3.org/1999/xlink" x="0px" y="0px"
	 viewBox="0 0 22 22" style="enable-background:new 0 0 22 22;" xml:space="preserve">
<style type="text/css">
	.st0{fill:#0D152D;}
</style>
<g>
	<path class="st0" d="M7.44,4.57c1.09,0.01,2.11,0.29,3.05,0.84c0.63,0.36,0.98,0.72,1.14,0.83c-0.64,0.63-1.26,1.26-1.89,1.87
		C9.28,7.71,8.76,7.34,7.86,7.2C7.68,7.17,7.5,7.16,7.32,7.16c-1.8,0-3.31,1.3-3.71,3.01c-0.09,0.38-0.12,0.77-0.09,1.16
		c0.14,1.58,1.2,2.88,2.63,3.34c0.36,0.11,0.75,0.17,1.12,0.17c0.09,0,0.18,0,0.27-0.01c0.67-0.04,1.31-0.22,1.88-0.6
		c0.97-0.66,1.28-1.69,1.28-1.94c-0.18,0-3.28,0-3.45,0c0-0.08,0.01-1.7,0.02-2.48V9.7c2.02,0,4.04,0,6.05,0
		c0.33,1.89,0.04,3.88-1.14,5.43c-0.82,1.07-1.9,1.74-3.19,2.08c-0.58,0.15-1.15,0.22-1.74,0.22c-0.12,0-0.24,0-0.37-0.01
		c-1.26-0.08-2.41-0.47-3.43-1.22c-1.32-0.96-2.14-2.25-2.48-3.84c-0.13-0.58-0.17-1.15-0.13-1.73c0.09-1.37,0.57-2.61,1.45-3.67
		C3.2,5.84,4.37,5.11,5.76,4.75C6.11,4.66,6.47,4.6,6.82,4.58C7.04,4.59,7.24,4.57,7.44,4.57z"/>
	<polygon class="st0" points="18.94,7.56 18.94,7.63 18.92,9.81 21.1,9.81 21.17,9.81 21.17,9.87 21.15,11.49 21.15,11.57 
		21.08,11.57 18.9,11.57 18.9,13.75 18.9,13.81 18.83,13.81 17.2,13.81 17.13,13.81 17.13,13.75 17.15,11.57 14.97,11.57 
		14.9,11.57 14.9,11.49 14.92,9.87 14.92,9.81 14.99,9.81 17.17,9.81 17.17,7.63 17.17,7.56 17.24,7.56 18.88,7.56 	"/>
</g>
</svg>
