<?xml version="1.0" encoding="utf-8"?>
<!-- Generator: Adobe Illustrator 25.2.1, SVG Export Plug-In . SVG Version: 6.00 Build 0)  -->
<svg version="1.1" id="Layer_1" xmlns="http://www.w3.org/2000/svg" xmlns:xlink="http://www.w3.org/1999/xlink" x="0px" y="0px"
	 viewBox="0 0 22 22" style="enable-background:new 0 0 22 22;" xml:space="preserve">
<style type="text/css">
	.st0{fill:#0D152D;}
</style>
<g>
	<path class="st0" d="M14.16,19.27H7.84c-2.82,0-5.11-2.29-5.11-5.11V7.84c0-2.82,2.29-5.11,5.11-5.11h6.32
		c2.82,0,5.11,2.29,5.11,5.11v6.32C19.27,16.98,16.98,19.27,14.16,19.27z M7.84,4.58c-1.8,0-3.26,1.46-3.26,3.26v6.32
		c0,1.8,1.46,3.26,3.26,3.26h6.32c1.8,0,3.26-1.47,3.26-3.26V7.84c0-1.8-1.47-3.26-3.26-3.26H7.84z"/>
	<path class="st0" d="M11,15.23c-2.33,0-4.22-1.9-4.22-4.23c0-2.33,1.89-4.22,4.22-4.22s4.22,1.89,4.22,4.22
		C15.23,13.33,13.33,15.23,11,15.23z M11,8.44c-1.41,0-2.57,1.15-2.57,2.57s1.15,2.57,2.57,2.57c1.41,0,2.57-1.15,2.57-2.57
		S12.42,8.44,11,8.44z"/>
	<path class="st0" d="M15.75,6.65c0,0.39-0.32,0.71-0.71,0.71c-0.4,0-0.72-0.32-0.72-0.71c0-0.39,0.32-0.72,0.72-0.72
		C15.43,5.94,15.75,6.26,15.75,6.65z"/>
</g>
</svg>
