<?xml version="1.0" encoding="utf-8"?>
<!-- Generator: Adobe Illustrator 25.2.1, SVG Export Plug-In . SVG Version: 6.00 Build 0)  -->
<svg version="1.1" id="Layer_1" xmlns="http://www.w3.org/2000/svg" xmlns:xlink="http://www.w3.org/1999/xlink" x="0px" y="0px"
	 viewBox="0 0 22 22" style="enable-background:new 0 0 22 22;" xml:space="preserve">
<style type="text/css">
	.st0{fill:#0D152D;}
</style>
<path class="st0" d="M9.36,16.31c-0.11-0.11-0.17-0.24-0.17-0.39v-3.29H6.04c-0.15,0-0.28-0.06-0.39-0.17s-0.16-0.24-0.16-0.39V9.83
	c0-0.15,0.06-0.27,0.16-0.39c0.11-0.11,0.24-0.16,0.39-0.16h3.17v-3.2c0-0.15,0.06-0.28,0.17-0.39s0.24-0.16,0.39-0.16h2.5
	c0.15,0,0.28,0.05,0.39,0.16s0.16,0.24,0.16,0.39v3.2h3.14c0.15,0,0.28,0.05,0.39,0.16s0.17,0.24,0.17,0.39v2.24
	c0,0.15-0.06,0.28-0.17,0.39s-0.24,0.17-0.39,0.17h-3.14v3.3c0,0.15-0.05,0.28-0.16,0.39c-0.11,0.1-0.24,0.16-0.39,0.16h-2.5
	C9.6,16.47,9.48,16.42,9.36,16.31z"/>
</svg>
