<?xml version="1.0" encoding="utf-8"?>
<!-- Generator: Adobe Illustrator 25.2.1, SVG Export Plug-In . SVG Version: 6.00 Build 0)  -->
<svg version="1.1" id="Layer_1" xmlns="http://www.w3.org/2000/svg" xmlns:xlink="http://www.w3.org/1999/xlink" x="0px" y="0px"
	 viewBox="0 0 22 22" style="enable-background:new 0 0 22 22;" xml:space="preserve">
<style type="text/css">
	.st0{fill:#0D152D;}
</style>
<g>
	<path class="st0" d="M0.77,16.82c-0.08-0.08-0.12-0.18-0.12-0.29V5.49c0-0.12,0.04-0.23,0.11-0.31s0.17-0.12,0.3-0.12h4.55
		c1.37,0,2.44,0.32,3.22,0.97C9.61,6.68,10,7.61,10,8.84c0,1.22-0.39,2.15-1.17,2.77c-0.78,0.63-1.85,0.94-3.22,0.94h-2.5v3.97
		c0,0.12-0.04,0.22-0.12,0.3c-0.08,0.07-0.18,0.11-0.3,0.11H1.06C0.95,16.94,0.85,16.9,0.77,16.82z M5.52,10.66
		c0.66,0,1.15-0.15,1.5-0.46c0.35-0.31,0.52-0.77,0.52-1.37c0-0.59-0.17-1.04-0.5-1.38C6.7,7.13,6.2,6.96,5.52,6.96H3.08v3.69h2.44
		C5.52,10.65,5.52,10.66,5.52,10.66z"/>
	<path class="st0" d="M11.97,16.82c-0.08-0.08-0.12-0.18-0.12-0.29V5.49c0-0.12,0.04-0.23,0.11-0.31c0.08-0.08,0.18-0.12,0.3-0.12
		h4.39c1.39,0,2.48,0.32,3.27,0.97s1.17,1.56,1.17,2.75c0,0.83-0.19,1.52-0.59,2.08c-0.39,0.56-0.95,0.96-1.66,1.21l2.46,4.33
		c0.03,0.07,0.05,0.13,0.05,0.19c0,0.1-0.04,0.19-0.11,0.25c-0.08,0.07-0.15,0.1-0.25,0.1h-1.56c-0.18,0-0.32-0.04-0.42-0.13
		c-0.1-0.08-0.19-0.2-0.27-0.33l-2.17-4.02h-2.33v4.07c0,0.11-0.03,0.21-0.12,0.29c-0.08,0.08-0.18,0.12-0.31,0.12h-1.56
		C12.14,16.94,12.05,16.9,11.97,16.82z M16.6,10.52c0.68,0,1.19-0.15,1.53-0.45s0.51-0.74,0.51-1.31c0-0.58-0.17-1.02-0.51-1.33
		c-0.33-0.31-0.84-0.46-1.53-0.46h-2.36v3.56L16.6,10.52L16.6,10.52z"/>
</g>
</svg>
