<?xml version="1.0" encoding="utf-8"?>
<!-- Generator: Adobe Illustrator 25.2.1, SVG Export Plug-In . SVG Version: 6.00 Build 0)  -->
<svg version="1.1" id="Layer_1" xmlns="http://www.w3.org/2000/svg" xmlns:xlink="http://www.w3.org/1999/xlink" x="0px" y="0px"
	 viewBox="0 0 22 22" style="enable-background:new 0 0 22 22;" xml:space="preserve">
<style type="text/css">
	.st0{fill:#0D152D;}
</style>
<path class="st0" d="M17.64,9.52c-0.13,0.01-0.25,0.02-0.38,0.02c-1.4,0-2.71-0.7-3.47-1.87v6.37c0,2.6-2.11,4.72-4.71,4.72
	c-2.61,0-4.71-2.11-4.71-4.72c0-2.6,2.1-4.71,4.71-4.71l0,0c0.1,0,0.19,0.01,0.29,0.02v2.32c-0.1-0.01-0.19-0.03-0.29-0.03
	c-1.33,0-2.41,1.08-2.41,2.4c0,1.33,1.07,2.41,2.41,2.41c1.33,0,2.5-1.05,2.5-2.38l0.02-10.83h2.22c0.21,1.99,1.81,3.55,3.82,3.69
	V9.52"/>
</svg>
